# xmcd
#
# Track frame offsets: 
#        150
#        17405
#        38730
#        56889
#        77271
#        89735
#        109337
#        129292
#        153211
#        171058
#
# Disc length: 2763 seconds
#
# Revision: 0
# Processed by: cddbd v1.5.2PL0 Copyright (c) Steve Scherf et al.
# Submitted via: ExactAudioCopy v0.99pb4
#
DISCID=700ac90a
DTITLE=The Book Of Life - Love Will Rise
DYEAR=1981
DGENRE=Soul
TTITLE0=Jesus Is Coming Again
TTITLE1=Love Will Rise
TTITLE2=Hear The Message
TTITLE3=God's Given Me A Comforter
TTITLE4=Praise, Hallelujah
TTITLE5=I Don't Know You
TTITLE6=This Is A Blessing
TTITLE7=Come Live In My Heart
TTITLE8=Spread Love
TTITLE9=What's The Catch
EXTD=
EXTT0=
EXTT1=
EXTT2=
EXTT3=
EXTT4=
EXTT5=
EXTT6=
EXTT7=
EXTT8=
EXTT9=
PLAYORDER=
